<?xml version="1.0" standalone="no"?>
<!DOCTYPE svg PUBLIC "-//W3C//DTD SVG 20010904//EN"
 "http://www.w3.org/TR/2001/REC-SVG-20010904/DTD/svg10.dtd">
<svg version="1.0" xmlns="http://www.w3.org/2000/svg"
 width="2368.000000pt" height="1792.000000pt" viewBox="0 0 2368.000000 1792.000000"
 preserveAspectRatio="xMidYMid meet">

<g transform="translate(0.000000,1792.000000) scale(0.100000,-0.100000)"
fill="#000000" stroke="none">
<path d="M0 8960 l0 -8960 11840 0 11840 0 0 8960 0 8960 -11840 0 -11840 0 0
-8960z m14545 2710 c525 -48 996 -217 1400 -504 187 -132 329 -261 492 -443
l76 -86 -25 -21 c-14 -12 -87 -66 -162 -121 -75 -55 -186 -137 -247 -181
l-111 -82 -126 127 c-319 319 -717 532 -1146 612 -139 26 -449 37 -592 20
-488 -56 -890 -244 -1209 -565 -199 -199 -316 -395 -411 -683 -163 -496 -78
-1047 235 -1515 372 -557 1029 -874 1714 -828 252 17 439 62 675 162 243 103
448 239 638 425 237 232 368 456 399 686 l6 47 -921 0 -920 0 2 363 3 362
1100 3 c605 2 1196 0 1313 -3 l212 -7 0 -362 c0 -444 -13 -543 -97 -766 -101
-268 -300 -553 -554 -793 -395 -375 -861 -613 -1429 -731 -246 -51 -659 -66
-895 -32 -650 93 -1187 353 -1625 787 -397 394 -641 878 -711 1409 -19 144
-16 501 5 640 57 370 220 744 463 1063 69 90 263 287 368 371 344 279 776 489
1205 586 273 61 608 84 875 60z m-7181 -115 c4 -14 17 -49 30 -78 13 -28 76
-170 140 -314 63 -144 133 -301 156 -348 22 -48 40 -88 40 -90 0 -2 15 -36 34
-77 18 -40 64 -140 101 -223 37 -82 182 -402 323 -710 140 -308 289 -636 332
-730 124 -275 348 -757 410 -883 l58 -117 76 158 c93 194 192 420 461 1057 29
69 83 195 120 280 37 85 80 184 95 220 15 36 46 110 70 165 353 823 624 1460
686 1613 l37 92 429 0 c235 0 428 -2 428 -5 0 -3 -18 -46 -41 -97 -23 -51 -62
-142 -88 -203 -258 -599 -383 -886 -511 -1180 -50 -115 -118 -271 -150 -345
-49 -116 -125 -291 -390 -895 -26 -60 -75 -173 -108 -250 -58 -135 -211 -486
-334 -765 -33 -74 -79 -180 -103 -235 -23 -55 -65 -149 -93 -210 -27 -60 -77
-171 -110 -245 -33 -74 -85 -191 -116 -260 l-55 -125 -46 0 c-526 5 -485 3
-494 28 -16 42 -238 508 -423 886 -65 135 -129 269 -141 296 -11 28 -47 103
-79 168 -32 65 -58 120 -58 122 0 4 -34 76 -162 345 -33 69 -78 163 -100 210
-22 47 -67 141 -99 209 -33 68 -59 125 -59 126 0 2 -32 70 -71 152 -39 81
-127 267 -196 413 -69 146 -160 339 -203 430 -151 319 -182 386 -212 450 -17
36 -87 184 -156 330 -68 146 -141 303 -162 350 -21 47 -61 133 -89 192 -28 59
-51 109 -51 112 0 3 195 6 434 6 l434 0 6 -25z m4019 -80 c-3 -9 -8 -14 -10
-11 -3 3 -2 9 2 15 9 16 15 13 8 -4z m-3935 -60 c-3 -3 -9 2 -12 12 -6 14 -5
15 5 6 7 -7 10 -15 7 -18z m3897 -28 c-8 -21 -18 -37 -20 -37 -3 0 2 16 10 36
8 20 15 39 15 42 0 3 2 3 5 0 3 -3 -2 -21 -10 -41z m-4785 -12 c0 -5 -5 -3
-10 5 -5 8 -10 20 -10 25 0 6 5 3 10 -5 5 -8 10 -19 10 -25z m6440 20 c0 -2
-10 -9 -22 -15 -22 -11 -22 -10 -4 4 21 17 26 19 26 11z m-6387 -125 c3 -11 2
-18 -3 -15 -4 3 -10 14 -13 25 -3 11 -2 18 3 15 4 -3 10 -14 13 -25z m912 -11
c9 -17 14 -33 11 -36 -3 -3 -10 7 -16 22 -6 15 -13 32 -16 36 -3 5 -3 9 0 9 3
0 13 -14 21 -31z m8335 -5 c0 -2 -9 0 -20 6 -11 6 -20 13 -20 16 0 2 9 0 20
-6 11 -6 20 -13 20 -16z m-3230 -88 c0 -2 -7 -7 -16 -10 -8 -3 -12 -2 -9 4 6
10 25 14 25 6z m-5051 -36 c11 -24 11 -24 -3 -6 -9 11 -16 24 -16 30 0 12 5 7
19 -24z m-869 -75 c0 -5 -5 -3 -10 5 -5 8 -10 20 -10 25 0 6 5 3 10 -5 5 -8
10 -19 10 -25z m903 -5 c3 -11 1 -18 -4 -14 -5 3 -9 12 -9 20 0 20 7 17 13 -6z
m4847 -4 c0 -3 -4 -8 -10 -11 -5 -3 -10 -1 -10 4 0 6 5 11 10 11 6 0 10 -2 10
-4z m-5716 -62 c3 -8 2 -12 -4 -9 -6 3 -10 10 -10 16 0 14 7 11 14 -7z m5626
-14 c-6 -11 -15 -20 -20 -20 -6 0 -2 9 7 20 10 11 19 20 21 20 1 0 -2 -9 -8
-20z m-80 -79 c0 -5 -7 -12 -16 -15 -14 -5 -15 -4 -4 9 14 17 20 19 20 6z
m-4550 -116 c0 -5 -5 -3 -10 5 -5 8 -10 20 -10 25 0 6 5 3 10 -5 5 -8 10 -19
10 -25z m4420 -19 c0 -3 -4 -8 -10 -11 -5 -3 -10 -1 -10 4 0 6 5 11 10 11 6 0
10 -2 10 -4z m-55 -64 l-28 -27 24 31 c13 17 26 30 28 27 3 -2 -8 -16 -24 -31z
m3685 -307 c13 -14 21 -25 18 -25 -2 0 -15 11 -28 25 -13 14 -21 25 -18 25 2
0 15 -11 28 -25z m-7866 -21 c3 -8 2 -12 -4 -9 -6 3 -10 10 -10 16 0 14 7 11
14 -7z m7981 -94 c10 -11 16 -20 13 -20 -3 0 -13 9 -23 20 -10 11 -16 20 -13
20 3 0 13 -9 23 -20z m-7925 -34 c0 -12 -5 -7 -19 24 -11 24 -11 24 3 6 9 -11
16 -24 16 -30z m18 -41 c-3 -3 -9 2 -12 12 -6 14 -5 15 5 6 7 -7 10 -15 7 -18z
m21 -45 c11 -24 11 -24 -3 -6 -9 11 -16 24 -16 30 0 12 5 7 19 -24z m61 -135
c0 -5 -5 -3 -10 5 -5 8 -10 20 -10 25 0 6 5 3 10 -5 5 -8 10 -19 10 -25z m100
-220 c0 -5 -5 -3 -10 5 -5 8 -10 20 -10 25 0 6 5 3 10 -5 5 -8 10 -19 10 -25z
m-872 -10 c-3 -3 -9 2 -12 12 -6 14 -5 15 5 6 7 -7 10 -15 7 -18z m32 -70 c0
-5 -5 -3 -10 5 -5 8 -10 20 -10 25 0 6 5 3 10 -5 5 -8 10 -19 10 -25z m898
-50 c-3 -3 -9 2 -12 12 -6 14 -5 15 5 6 7 -7 10 -15 7 -18z m20 -50 c-3 -3 -9
2 -12 12 -6 14 -5 15 5 6 7 -7 10 -15 7 -18z m72 -150 c0 -5 -5 -3 -10 5 -5 8
-10 20 -10 25 0 6 5 3 10 -5 5 -8 10 -19 10 -25z m8483 -2 c-7 -2 -21 -2 -30
0 -10 3 -4 5 12 5 17 0 24 -2 18 -5z m-8403 -178 c0 -5 -5 -3 -10 5 -5 8 -10
20 -10 25 0 6 5 3 10 -5 5 -8 10 -19 10 -25z m4087 -527 c-3 -8 -6 -5 -6 6 -1
11 2 17 5 13 3 -3 4 -12 1 -19z m33 -93 c0 -5 -5 -3 -10 5 -5 8 -10 20 -10 25
0 6 5 3 10 -5 5 -8 10 -19 10 -25z m34 -101 c3 -8 2 -12 -4 -9 -6 3 -10 10
-10 16 0 14 7 11 14 -7z m-855 -54 c0 -9 -4 -8 -9 5 -5 11 -9 27 -9 35 0 9 4
8 9 -5 5 -11 9 -27 9 -35z m-3791 -15 c-3 -3 -9 2 -12 12 -6 14 -5 15 5 6 7
-7 10 -15 7 -18z m4730 -97 c6 -16 10 -28 7 -28 -6 0 -45 76 -45 87 0 11 24
-27 38 -59z m3365 -43 c-3 -9 -8 -14 -10 -11 -3 3 -2 9 2 15 9 16 15 13 8 -4z
m-4159 -187 c21 -34 31 -56 23 -50 -14 12 -71 112 -64 112 3 0 21 -28 41 -62z
m-3744 -83 c0 -5 -5 -3 -10 5 -5 8 -10 20 -10 25 0 6 5 3 10 -5 5 -8 10 -19
10 -25z m8661 2 c-10 -9 -11 -8 -5 6 3 10 9 15 12 12 3 -3 0 -11 -7 -18z
m-3821 -111 c0 -5 -9 2 -21 15 -11 13 -30 35 -43 49 -46 53 -36 52 13 0 28
-30 51 -59 51 -64z m2860 100 c0 -2 -8 -10 -17 -17 -16 -13 -17 -12 -4 4 13
16 21 21 21 13z m-7671 -56 c11 -24 11 -24 -3 -6 -9 11 -16 24 -16 30 0 12 5
7 19 -24z m3800 -4 c-3 -3 -11 5 -18 17 -13 21 -12 21 5 5 10 -10 16 -20 13
-22z m71 -102 c18 -26 29 -45 24 -42 -5 4 -25 28 -44 54 -18 26 -29 45 -24 42
5 -4 25 -28 44 -54z m1024 -11 c55 -61 40 -53 -24 13 -30 31 -46 50 -35 43 11
-7 37 -32 59 -56z m-4844 12 c0 -5 -5 -3 -10 5 -5 8 -10 20 -10 25 0 6 5 3 10
-5 5 -8 10 -19 10 -25z m7450 2 c0 -2 -10 -12 -22 -23 l-23 -19 19 23 c18 21
26 27 26 19z m-100 -81 c0 -2 -8 -10 -17 -17 -16 -13 -17 -12 -4 4 13 16 21
21 21 13z m-3460 -26 c0 -5 -2 -10 -4 -10 -3 0 -8 5 -11 10 -3 6 -1 10 4 10 6
0 11 -4 11 -10z m3410 -14 c0 -2 -8 -10 -17 -17 -16 -13 -17 -12 -4 4 13 16
21 21 21 13z m-7181 -131 c0 -5 -11 10 -24 35 -13 25 -24 50 -24 55 0 6 11
-10 24 -35 13 -25 24 -49 24 -55z m3915 -34 c-5 -5 -44 37 -80 86 -16 22 -5
13 28 -22 31 -33 54 -62 52 -64z m1060 70 c-2 -3 -12 3 -22 13 -16 17 -16 18
5 5 12 -7 20 -15 17 -18z m2056 -5 c0 -2 -7 -7 -16 -10 -8 -3 -12 -2 -9 4 6
10 25 14 25 6z m-1935 -64 c-3 -3 -11 0 -18 7 -9 10 -8 11 6 5 10 -3 15 -9 12
-12z m95 -37 c14 -8 21 -14 15 -14 -5 0 -21 6 -35 14 -14 8 -20 14 -15 14 6 0
21 -6 35 -14z m-1160 -82 c41 -42 68 -71 59 -65 -9 7 -18 11 -20 9 -2 -1 -3 0
-1 2 1 3 -26 33 -60 68 -34 35 -60 63 -57 63 2 0 38 -35 79 -77z m2697 41 c-3
-3 -12 -4 -19 -1 -8 3 -5 6 6 6 11 1 17 -2 13 -5z m-2551 -176 l29 -31 -37 28
c-39 28 -45 35 -30 35 5 0 21 -14 38 -32z m64 -53 c13 -14 21 -25 18 -25 -2 0
-15 11 -28 25 -13 14 -21 25 -18 25 2 0 15 -11 28 -25z m105 -75 c3 -5 2 -10
-4 -10 -5 0 -13 5 -16 10 -3 6 -2 10 4 10 5 0 13 -4 16 -10z m-4097 -105 c-3
-3 -9 2 -12 12 -6 14 -5 15 5 6 7 -7 10 -15 7 -18z m4277 -15 c3 -6 -1 -7 -9
-4 -18 7 -21 14 -7 14 6 0 13 -4 16 -10z m69 -39 c4 -5 -3 -7 -14 -4 -23 6
-26 13 -6 13 8 0 17 -4 20 -9z m52 -39 c1 -7 0 -8 -3 -2 -2 5 -9 8 -14 4 -5
-3 -9 0 -9 6 0 15 23 7 26 -8z m-4306 -97 c0 -5 -5 -3 -10 5 -5 8 -10 20 -10
25 0 6 5 3 10 -5 5 -8 10 -19 10 -25z m4647 -61 c-3 -3 -12 -4 -19 -1 -8 3 -5
6 6 6 11 1 17 -2 13 -5z"/>
</g>
</svg>
